# xmcd CD database file
#
# Track frame offsets:
#	182
#	1072
#	15230
#	37255
#	50917
#	75402
#	86217
#	108260
#	110205
#	136662
#	152620
#	170242
#	184512
#	200050
#
# Disc length: 2693 seconds
#
# Revision: 0
# Processed by: cddbd v1.4PL0 Copyright (c) Steve Scherf et al.
# Submitted via: CDex 1.50
#
DISCID=b30a830e
DTITLE=casse-pipe - tome 1
DYEAR=1993
DGENRE=Blues
TTITLE0=salle u
TTITLE1=foutu dimanche
TTITLE2=stilitano
TTITLE3=la coco des enfants sages
TTITLE4=carnaval
TTITLE5=la chanson de mac orlan
TTITLE6=le tango à cran d'arrêt
TTITLE7=toilettes romanes
TTITLE8=jolie nanon
TTITLE9=l'étoile rose
TTITLE10=les escaliers
TTITLE11=la complainte de kesoubah
TTITLE12=tout fout le camp
TTITLE13=bar baille
EXTD=YEAR: 1993
EXTT0=
EXTT1=
EXTT2=
EXTT3=
EXTT4=
EXTT5=
EXTT6=
EXTT7=
EXTT8=
EXTT9=
EXTT10=
EXTT11=
EXTT12=
EXTT13=
PLAYORDER=
